<svg version="1.0"
  xmlns="http://www.w3.org/2000/svg" width="700" height="700" viewBox="0 0 700 700" preserveAspectRatio="xMidYMid meet">
  <g transform="translate(0,700) scale(0.100000,-0.100000)" fill="#000000" stroke="none">
    <path d="M3327 6414 c-1 -1 -38 -5 -82 -8 -44 -4 -91 -8 -105 -10 -14 -3 -47
-7 -73 -11 -414 -52 -901 -250 -1272 -517 -135 -98 -211 -164 -356 -308 -159
-159 -244 -261 -350 -420 -38 -58 -74 -111 -81 -119 -25 -30 -188 -363 -226
-461 -39 -101 -88 -247 -97 -286 -2 -11 -11 -45 -19 -77 -48 -176 -78 -429
-80 -667 -2 -148 5 -293 18 -390 14 -100 28 -187 36 -220 5 -19 11 -46 14 -60
71 -356 271 -789 515 -1114 272 -362 620 -650 1030 -855 113 -57 352 -158 388
-164 10 -2 56 -16 103 -30 88 -28 288 -71 375 -82 28 -4 61 -8 75 -11 140 -24
533 -24 730 2 155 19 401 72 465 98 16 7 35 14 40 15 112 20 435 165 623 278
89 54 178 113 242 161 25 19 58 43 74 55 85 63 255 224 369 351 354 389 642
1005 702 1501 4 33 9 71 11 85 23 169 23 552 0 710 -3 14 -7 43 -9 65 -27 196
-82 409 -157 605 -12 30 -26 69 -32 85 -6 17 -46 100 -89 185 -151 300 -307
518 -534 746 -82 83 -170 167 -195 186 -25 20 -70 56 -100 80 -208 166 -549
350 -833 448 -111 39 -314 93 -391 106 -21 3 -48 8 -60 10 -11 2 -41 7 -66 10
-25 3 -56 7 -70 9 -84 14 -522 29 -533 19z m318 -588 c61 -3 124 -8 140 -10
17 -3 62 -11 100 -17 39 -7 104 -19 145 -28 l75 -17 -45 -31 c-77 -53 -175
-165 -214 -245 -35 -72 -40 -88 -52 -180 l-7 -48 -166 0 c-91 -1 -184 -3 -206
-6 -177 -23 -354 -152 -438 -320 -54 -108 -59 -151 -60 -509 l-1 -330 569 -1
c314 -1 577 -2 585 -3 13 -1 15 -28 14 -179 0 -113 5 -199 13 -237 31 -138
130 -281 249 -360 57 -38 159 -78 224 -89 19 -3 196 -6 393 -6 371 0 424 4
522 45 79 34 173 111 246 203 19 24 63 118 80 172 l18 55 1 -80 c2 -123 -1
-278 -5 -316 -2 -19 -6 -61 -10 -94 -11 -114 -64 -350 -105 -470 -79 -227
-185 -427 -332 -621 -228 -304 -516 -544 -843 -705 -127 -62 -362 -149 -447
-165 -18 -3 -37 -7 -43 -8 -5 -2 -21 -6 -35 -9 -14 -4 -41 -9 -60 -12 -19 -2
-44 -6 -55 -9 -18 -3 -63 -8 -195 -22 -49 -5 -369 -4 -405 1 -16 2 -55 7 -85
10 -30 3 -64 8 -75 10 -142 26 -202 40 -209 46 -11 10 -15 775 -4 792 4 7 142
10 437 10 l432 -1 -2 207 c-1 275 -24 402 -104 574 -99 216 -309 435 -527 550
-102 54 -244 100 -353 114 -22 2 -51 6 -65 8 -14 2 -373 4 -799 4 l-774 1 7
138 c3 75 8 153 11 172 17 124 28 185 46 260 20 88 63 230 79 265 5 11 19 45
31 75 33 86 117 246 184 350 260 401 670 744 1088 909 88 35 290 98 340 106
31 5 57 10 107 21 14 2 45 7 70 10 25 3 52 8 60 10 8 3 80 8 160 11 80 3 146
7 148 8 2 2 11 1 20 -1 9 -1 67 -5 127 -8z"/>
  </g>
</svg>
